<svg width="116" height="116" viewBox="0 0 116 116" fill="none" xmlns="http://www.w3.org/2000/svg">
<path d="M101.43 33.6817C100.599 32.2412 99.4085 31.0408 97.9749 30.1975C96.5413 29.3542 94.9136 28.8968 93.2506 28.8701H31.6613L28.8706 17.9957C28.5886 16.946 27.9595 16.0227 27.0858 15.3761C26.2121 14.7296 25.1452 14.3979 24.0589 14.4351H14.4356C13.1595 14.4351 11.9356 14.942 11.0332 15.8444C10.1309 16.7468 9.62393 17.9706 9.62393 19.2467C9.62393 20.5229 10.1309 21.7467 11.0332 22.6491C11.9356 23.5515 13.1595 24.0584 14.4356 24.0584H20.4021L33.6822 73.426C33.9642 74.4758 34.5933 75.3991 35.467 76.0456C36.3407 76.6922 37.4076 77.0239 38.4939 76.9867H81.7989C82.6874 76.984 83.5579 76.7353 84.3137 76.2682C85.0696 75.8011 85.6814 75.1338 86.0812 74.3402L101.863 42.7758C102.548 41.342 102.866 39.7611 102.79 38.1743C102.715 36.5875 102.248 35.044 101.43 33.6817ZM78.8156 67.3633H42.1508L34.3078 38.4934H93.2506L78.8156 67.3633Z" fill="#F5F5F5"/>
<path d="M36.0875 101.045C40.0736 101.045 43.305 97.8136 43.305 93.8275C43.305 89.8414 40.0736 86.61 36.0875 86.61C32.1014 86.61 28.87 89.8414 28.87 93.8275C28.87 97.8136 32.1014 101.045 36.0875 101.045Z" fill="#F5F5F5"/>
<path d="M84.2036 101.045C88.1897 101.045 91.4211 97.8136 91.4211 93.8275C91.4211 89.8414 88.1897 86.61 84.2036 86.61C80.2175 86.61 76.9861 89.8414 76.9861 93.8275C76.9861 97.8136 80.2175 101.045 84.2036 101.045Z" fill="#F5F5F5"/>
</svg>
